# xmcd
#
# Track frame offsets:
#	182
#	12865
#	24115
#	37990
#	51542
#	65530
#	78537
#	91365
#	104125
#	116517
#	129142
#	140567
#	153715
#	166625
#	178990
#	190940
#	203317
#	216642
#	229610
#	242907
#	256057
#	268825
#
# Disc length: 3760 seconds
#
# Revision: 0
# Processed by: cddbd v1.5.1PL0 Copyright (c) Steve Scherf et al.
# Submitted via: audiograbber 1.83.01
#
DISCID=340eae16
DTITLE=Big Bill Broonzy - All time blues classics
DYEAR=1900
DGENRE=Blues
TTITLE0=I feel so good
TTITLE1=All by myself
TTITLE2=The sun gonna shine in my door someday
TTITLE3=Big Bill blues
TTITLE4=Worrying you off my mind
TTITLE5=Too-too train
TTITLE6=Bull cow blues
TTITLE7=Long tall mama
TTITLE8=Mississipi river blues
TTITLE9=I can't be satisfied
TTITLE10=Good time tonight
TTITLE11=Keep your hands off her
TTITLE12=Just a dream
TTITLE13=I'm in the army now
TTITLE14=Unemployment stomp
TTITLE15=Merry go round
TTITLE16=Why don't you do right ?
TTITLE17=Tell me, baby
TTITLE18=Medecine man
TTITLE19=New shake'em on down
TTITLE20=Night time is the right time
TTITLE21=It's a low down dirty shame
EXTD=
EXTT0=
EXTT1=
EXTT2=
EXTT3=
EXTT4=
EXTT5=
EXTT6=
EXTT7=
EXTT8=
EXTT9=
EXTT10=
EXTT11=
EXTT12=
EXTT13=
EXTT14=
EXTT15=
EXTT16=
EXTT17=
EXTT18=
EXTT19=
EXTT20=
EXTT21=
PLAYORDER=
